<svg id="Layer_1" data-name="Layer 1" xmlns="http://www.w3.org/2000/svg" viewBox="0 0 500 500"><path d="M353.7,42.3H154.2a24.33,24.33,0,0,0-24.3,24.3V427.3a24.33,24.33,0,0,0,24.3,24.3H353.7A24.33,24.33,0,0,0,378,427.3V66.7A24.35,24.35,0,0,0,353.7,42.3Z" fill="#789dc1"/><path d="M298.7,67.8H225.1a15,15,0,0,0-15,15v31a15,15,0,0,0,15,15h73.6a15,15,0,0,0,15-15v-31A15,15,0,0,0,298.7,67.8Z" fill="#658aad"/><path d="M290.8,67.8H217.2a15,15,0,0,0-15,15v31a15,15,0,0,0,15,15h73.6a15,15,0,0,0,15-15v-31A15,15,0,0,0,290.8,67.8Z" fill="#d2e5f5"/><path d="M285.7,128.7v-61H230.6c-2.9,3.1-9.1,11.6-9.1,29.6v31.4Z" fill="#bdd5ea"/><path d="M282.2,163.4l-14.6-7.8,21.6-40.1-33.8-4.9,2.4-16.4,45.5,6.6a8.29,8.29,0,0,1,6.2,4.5,8.17,8.17,0,0,1-.1,7.6Z" fill="#acc5e2"/><path d="M265.2,111.9l19.1,2.8a33.51,33.51,0,0,0,3.4-16.2l-22.5-3.2Z" fill="#8fafd4"/><rect x="224.7" y="145.9" width="58.5" height="77.4" fill="#acc5e2"/><path d="M224.7,175.8v15.4l57.6.9a6.59,6.59,0,0,1,.9-.2V176.1A123.24,123.24,0,0,1,224.7,175.8Z" fill="#8fafd4"/><polygon points="250.4 154.4 231.9 145.9 252.3 145.9 250.4 154.4" fill="#8fafd4"/><path d="M246,136.5v10.8a8,8,0,0,0,8,8h0a8,8,0,0,0,8-8V136.5Z" fill="#df7c68"/><path d="M231.7,98.3h-2.3a4.69,4.69,0,0,0-4.3,6.6l6.6,14.6S234.9,98.8,231.7,98.3Z" fill="#df7c68"/><path d="M276.2,98.3h2.3a4.69,4.69,0,0,1,4.3,6.6l-6.6,14.6S273,98.8,276.2,98.3Z" fill="#df7c68"/><path d="M230.6,89.3v27.9a23.26,23.26,0,0,0,23.3,23.3h0a23.26,23.26,0,0,0,23.3-23.3V89.3Z" fill="#f69d8c"/><path d="M277.3,91.3H230.6V88.7A19.67,19.67,0,0,1,250.3,69h27Z" fill="#172930"/><path d="M235.4,88.9v5.4a26.92,26.92,0,0,1-4.8,15.3h0v-19Z" fill="#172930"/><path d="M272.5,88.9v5.4a26.92,26.92,0,0,0,4.8,15.3h0V87Z" fill="#172930"/><path d="M276.3,94.9a44.36,44.36,0,0,0,9.5-26.1c.1-4.1-.5-8.4-3.3-11.4a3.87,3.87,0,0,0-3.7-1.4,3.54,3.54,0,0,0-2.2,2.4,12.22,12.22,0,0,0-.2,3.3,15.83,15.83,0,0,0-8.5-8,8.3,8.3,0,0,0-3.8-.7,4.61,4.61,0,0,0-4.3,6.3,15.67,15.67,0,0,0,2.2,4.5,22.37,22.37,0,0,0-14.7-3.6,11,11,0,0,0-6,2.2c-2.8,2.2-3.7,6.2-2.8,9.6a13.92,13.92,0,0,0,6.5,8,28.61,28.61,0,0,0,10,3.2c4.4.6,9.1.8,13.1,2.8C271.5,87.8,275,91.2,276.3,94.9Z" fill="#172930"/><path d="M243.3,109.6a9.37,9.37,0,0,1-6.9-3.2.85.85,0,0,1,1.3-1.1,7.44,7.44,0,0,0,5.6,2.6,7.26,7.26,0,0,0,5.6-2.6.85.85,0,1,1,1.3,1.1A9,9,0,0,1,243.3,109.6Z" fill="#a65241"/><path d="M264.5,109.6a9.37,9.37,0,0,1-6.9-3.2.85.85,0,0,1,1.3-1.1,7.44,7.44,0,0,0,5.6,2.6,7.26,7.26,0,0,0,5.6-2.6.85.85,0,1,1,1.3,1.1A9,9,0,0,1,264.5,109.6Z" fill="#a65241"/><path d="M271.2,102.3a1.56,1.56,0,0,1-1.3-.8,6.7,6.7,0,0,0-4.3-3.6,7,7,0,0,0-5.6.9,1.44,1.44,0,0,1-1.6-2.4,9.24,9.24,0,0,1,7.9-1.3,9.85,9.85,0,0,1,6.2,5.1,1.51,1.51,0,0,1-.7,1.9A.73.73,0,0,1,271.2,102.3Z" fill="#172930"/><path d="M236.7,102.3a1.27,1.27,0,0,1-.6-.1,1.47,1.47,0,0,1-.7-1.9,9.61,9.61,0,0,1,6.2-5.1,10,10,0,0,1,7.9,1.3,1.44,1.44,0,0,1-1.6,2.4,6.79,6.79,0,0,0-9.9,2.7A1.71,1.71,0,0,1,236.7,102.3Z" fill="#172930"/><path d="M253.9,111l-2.5,9.1a2.58,2.58,0,0,0,2.5,3.3h0a2.58,2.58,0,0,0,2.5-3.3Z" fill="#df7c68"/><path d="M253.9,126.4a6.38,6.38,0,0,0-6.4,6.4h12.7A6.24,6.24,0,0,0,253.9,126.4Z" fill="#172930"/><path d="M258.6,132.7a5.25,5.25,0,0,0-4.6-2.9,5.13,5.13,0,0,0-4.6,2.9Z" fill="#b56555"/><path d="M129.9,182.7V427.3a24.33,24.33,0,0,0,24.3,24.3H353.7A24.33,24.33,0,0,0,378,427.3V182.7Z" fill="#172930"/><path d="M214.5,182.7V329.6A39.41,39.41,0,0,0,253.9,369h0a39.41,39.41,0,0,0,39.4-39.4V182.7Z" fill="#213a45"/><polygon points="244.1 203.1 218.4 194.8 225.6 182.7 212.6 182.7 205.7 197.6 244.1 203.1" fill="#172930"/><path d="M266.8,214.7s-36.6,5.8-52.3,33.1c-16-4.5-5.2-39.3-5.2-39.3S261.9,209.8,266.8,214.7Z" fill="#172930"/><path d="M245,204.5l8-4.9a1.05,1.05,0,0,1,1.6.6h0a1.31,1.31,0,0,1-.3,1.2l-3.8,3.8Z" fill="#df7c68"/><path d="M242.9,205.1l12.1-3.5a9.71,9.71,0,0,1,5.6.1l6.9,2.5a1.92,1.92,0,0,1,1.3,1.8v6.7a1.89,1.89,0,0,1-2.1,1.9l-5.8-.1a10.78,10.78,0,0,0-3.6.4l-9.3,2.9a9.07,9.07,0,0,1-4.9.1l-4.3-1.2Z" fill="#f69d8c"/><path d="M242.9,205.1l-4,11.6,4.3,1.2c.1,0,.2,0,.2.1l1.5-13.5Z" fill="#df7c68"/><path d="M244.1,203.1,211,196.2,231.5,158a8.28,8.28,0,0,0-14.6-7.8l-25.8,47.9a8.38,8.38,0,0,0-.2,7.4,8.19,8.19,0,0,0,5.8,4.6l42.9,8.9Z" fill="#acc5e2"/><path d="M364,62.7a8.71,8.71,0,0,0-8.7,8.7v95.8a8.7,8.7,0,1,0,17.4,0V71.3A8.62,8.62,0,0,0,364,62.7Z" fill="#85afd6"/><path d="M364,191.2a8.71,8.71,0,0,0-8.7,8.7V427a8.7,8.7,0,0,0,17.4,0V199.9A8.71,8.71,0,0,0,364,191.2Z" fill="#213a45"/><text transform="matrix(0.95, -0.32, 0.32, 0.95, 191.74, 102.34)" font-size="17.05" fill="#fff" font-family="ArialMT, Arial" style="isolation:isolate">Z</text><text transform="translate(164.23 66.31) rotate(19.56)" font-size="17.05" fill="#fff" font-family="ArialMT, Arial" style="isolation:isolate">Z</text><text transform="translate(176.14 84.65) rotate(3.55)" font-size="28.62" fill="#fff" font-family="ArialMT, Arial" style="isolation:isolate">Z</text></svg>