<svg id="Layer_1" data-name="Layer 1" xmlns="http://www.w3.org/2000/svg" viewBox="0 0 500 500"><g id="Grass"><polygon points="478.4 443.1 478.4 435.7 472.3 432 465.9 435.9 459.5 432 453.1 435.9 446.7 432 440.4 435.9 434 432 427.6 435.9 421.2 432 414.8 435.9 408.4 432 402.1 435.9 395.7 432 389.3 435.9 382.9 432 376.5 435.9 370.1 432 363.8 435.9 357.4 432 351 435.9 344.6 432 338.2 435.9 331.8 432 325.4 435.9 319.1 432 312.7 435.9 306.3 432 299.9 435.9 293.5 432 287.1 435.9 280.7 432 274.4 435.9 268 432 261.6 435.9 255.2 432 248.8 435.9 242.4 432 236 435.9 229.7 432 223.3 435.9 216.9 432 210.5 435.9 204.1 432 197.7 435.9 191.4 432 185 435.9 178.6 432 172.2 435.9 165.8 432 159.4 435.9 153.1 432 146.7 435.9 140.3 432 133.9 435.9 127.5 432 121.1 435.9 114.7 432 108.3 435.9 102 432 95.6 435.9 89.2 432 82.8 435.9 76.4 432 70 435.9 63.6 432 57.2 435.9 50.8 432 44.5 435.9 38.1 432 32.7 435.3 32.7 443.1 478.4 443.1" fill="#92e3a9"/></g><g id="Plants"><path d="M372.3,398.9c1.4.6,4.8.5,4.8.5s-.7-2.2-.8-2.3c-.7-1.5-3.1-4.1-5-3.8a2.3,2.3,0,0,0-1.8,2.9C369.7,397.4,371.1,398.4,372.3,398.9Z" fill="#828282"/><path d="M373.4,408.6c1.4.2,4.4-.7,4.7-.7a51.73,51.73,0,0,0,1.8,5.1c.4,1,.9,1.9,1.3,2.9-.3-.4-.5-.8-.6-.8-1.1-1.3-4.1-3.1-5.8-2.4a2.25,2.25,0,0,0-1,3.2,4.86,4.86,0,0,0,3.5,2,13.7,13.7,0,0,0,4.5-.7,5.36,5.36,0,0,1,.5,1.1c.9,1.7,1.7,3.5,2.6,5.2.3.6.5,1.2.8,1.8a3,3,0,0,0-.5-.7c-1.1-1.3-4.1-3.1-5.8-2.4a2.25,2.25,0,0,0-1,3.2,4.86,4.86,0,0,0,3.5,2,12,12,0,0,0,4.4-.7c.2.6.5,1.3.7,1.9.1.4.3.8.4,1.3a6.47,6.47,0,0,0,.4,1.3c.2.8.4,1.7.6,2.5.1.6.2,1.1.3,1.6-.3-.6-.8-1.8-.9-1.9-.9-1.5-3.5-3.7-5.4-3.2a2.31,2.31,0,0,0-1.5,3,4.85,4.85,0,0,0,3.1,2.5c1.3.4,4.3,0,4.7,0,.2.9.3,1.8.5,2.6.3,1.8.6,3.4.7,4.8h1.3c-.2-1.4-.5-3.1-.9-5-.2-.9-.4-1.9-.6-2.9.2-.1,1.5-.6,2.6-1.2a18.26,18.26,0,0,0,3.8,2.5c-.3.8-.7,1.7-1,2.4-.7,1.6-1.4,3-1.9,4.2h1.4c.5-1.1,1.1-2.4,1.6-3.8.4-.9.7-1.8,1.1-2.7a15.08,15.08,0,0,0,4.7.4c1.3-.3,2.8-1,3.3-2.2a2.21,2.21,0,0,0-1.3-3.1c-1.8-.6-4.6,1.5-5.6,2.8-.1.1-.6,1-1,1.6.1-.4.3-.8.4-1.2a18.29,18.29,0,0,0,.8-2.5c.1-.4.3-.8.4-1.3s.2-.9.3-1.3c.2-1,.4-2.1.6-3.2a13.61,13.61,0,0,0,4.5,1,4.77,4.77,0,0,0,3.6-1.7,2.25,2.25,0,0,0-.8-3.3c-1.7-.9-4.8.7-6,2a16.44,16.44,0,0,0-1.3,1.6c.1-.6.2-1.3.3-2,.2-1.9.4-3.8.6-5.8.1-.6.1-1.2.2-1.8a15.34,15.34,0,0,0,4.6,1.1,4.77,4.77,0,0,0,3.6-1.7,2.25,2.25,0,0,0-.8-3.3c-1.7-.9-4.8.7-6,2-.1.1-1.2,1.5-1.5,1.9.1-1.3.3-2.6.5-3.9a38.2,38.2,0,0,1,1.1-5.1c.1,0,3.2,1.2,4.6,1.1a4.77,4.77,0,0,0,3.6-1.7,2.25,2.25,0,0,0-.8-3.3c-1.7-.9-4.8.7-6,2-.1.1-1.3,1.6-1.5,1.9a.37.37,0,0,1,.1-.3,34.5,34.5,0,0,1,2-4.8,18.84,18.84,0,0,1,1.4-2.4,13.24,13.24,0,0,0,4.4,1.5,4.49,4.49,0,0,0,3.8-1.3,2.32,2.32,0,0,0-.4-3.4c-1.6-1.1-4.8.2-6.2,1.3l-1.2,1.2a6.07,6.07,0,0,1,.7-1c.8-1.2,1.6-2.3,2.3-3.2a17.41,17.41,0,0,1,1.2-1.4,13.91,13.91,0,0,0,4.6-.7,4.73,4.73,0,0,0,2.8-2.9,2.22,2.22,0,0,0-1.9-2.8c-1.9-.2-4.2,2.4-4.9,4a12.71,12.71,0,0,0-.7,2.4h0a14.2,14.2,0,0,1-1.2,1.3c-.7.9-1.6,2-2.4,3.2a46.6,46.6,0,0,0-2.5,4,25.84,25.84,0,0,0-2.1,4.8v-2.2c-.2-1.7-1.6-4.9-3.5-5.2a2.19,2.19,0,0,0-2.6,2.1,5,5,0,0,0,1.8,3.6c1.1,1,4.1,1.9,4.3,2-.5,1.7-.9,3.4-1.3,5.2-.2,1-.3,2.1-.5,3.1v-1c-.2-1.7-1.6-4.9-3.5-5.2a2.19,2.19,0,0,0-2.6,2.1,5,5,0,0,0,1.8,3.6,13.76,13.76,0,0,0,4.2,1.9,5,5,0,0,1-.2,1.2c-.2,1.9-.5,3.9-.7,5.7-.1.7-.2,1.3-.3,2v-.9c-.2-1.7-1.6-4.9-3.5-5.2A2.19,2.19,0,0,0,393,422a5,5,0,0,0,1.8,3.6,16.57,16.57,0,0,0,4.1,1.9c-.1.7-.3,1.3-.4,2a6.47,6.47,0,0,1-.4,1.3c-.1.4-.3.8-.4,1.3l-.9,2.4c-.2.5-.4,1-.6,1.6.1-.7.3-2,.3-2.1a9.36,9.36,0,0,0-1.2-4.3v-.5a2.22,2.22,0,0,0-2.8-1.9c-1.9.5-3,3.8-3.1,5.5,0,.1.1,1.2.1,1.9l-.3-1.2c-.2-.8-.4-1.6-.6-2.5-.1-.4-.3-.8-.4-1.3s-.3-.9-.4-1.3l-1.2-3c.7-.2,3.3-.8,4.3-1.6a5,5,0,0,0,2.1-3.4,2.26,2.26,0,0,0-2.5-2.3c-1.9.2-3.6,3.3-3.9,4.9,0,.1-.1,1.3-.2,2-.3-.6-.5-1.2-.8-1.8l-2.7-5.1c-.3-.5-.5-1.1-.8-1.6a18.6,18.6,0,0,0,4.4-1.6,5,5,0,0,0,2.1-3.4,2.26,2.26,0,0,0-2.5-2.3c-1.9.2-3.6,3.3-3.9,4.9,0,.1-.2,1.9-.2,2.4-.6-1.2-1.2-2.3-1.7-3.5a47.8,47.8,0,0,1-1.9-4.8,15.26,15.26,0,0,0,4.5-1.6,5,5,0,0,0,2.1-3.4,2.26,2.26,0,0,0-2.5-2.3c-1.9.2-3.6,3.3-3.9,4.9,0,.1-.2,2-.2,2.4,0-.1-.1-.2-.1-.3a32.76,32.76,0,0,1-1-5.1c-.1-1-.2-1.9-.2-2.8.6-.1,3.4-.4,4.5-1.1a4.6,4.6,0,0,0,2.4-3.2,2.32,2.32,0,0,0-2.2-2.6c-1.9,0-3.9,2.8-4.4,4.5a16.47,16.47,0,0,1-.4,1.7v-1.2c0-1.5.1-2.8.2-4,.1-.7.1-1.3.2-1.8a15.89,15.89,0,0,0,3.5-3.1,4.59,4.59,0,0,0,.7-3.9,2.31,2.31,0,0,0-3.1-1.3c-1.7.9-2.2,4.3-1.9,6,0,.1.7,2.4.7,2.4h0c-.1.5-.1,1.1-.2,1.8-.1,1.2-.2,2.5-.3,4s0,3,.1,4.7a24.68,24.68,0,0,0,.9,5.2v.1c-.3-.5-1.2-1.8-1.3-1.9-1.1-1.3-4.1-3.1-5.8-2.4a2.25,2.25,0,0,0-1,3.2A7.12,7.12,0,0,0,373.4,408.6Z" fill="#828282"/><path d="M406.4,399.6s.6-2.2.6-2.4c.2-1.7-.3-5.1-2-6a2.29,2.29,0,0,0-3.1,1.4,4.57,4.57,0,0,0,.8,3.9C403.5,397.8,406.4,399.6,406.4,399.6Z" fill="#828282"/><path d="M414.3,415a9.36,9.36,0,0,0,3,.3s-.5-1.4-.5-1.5c-.5-1-2-2.6-3.2-2.4a1.44,1.44,0,0,0-1.2,1.8A4.14,4.14,0,0,0,414.3,415Z" fill="#828282"/><path d="M415.1,421.2a9.67,9.67,0,0,0,3-.5,20.82,20.82,0,0,0,1.2,3.2c.3.6.5,1.2.8,1.8-.2-.3-.3-.5-.4-.5-.7-.8-2.6-2-3.7-1.5a1.47,1.47,0,0,0-.6,2.1,2.75,2.75,0,0,0,2.2,1.2,11.25,11.25,0,0,0,2.9-.4c.1.2.2.5.3.7.6,1.1,1.1,2.2,1.6,3.3.2.4.3.8.5,1.2a1.73,1.73,0,0,1-.3-.4c-.7-.8-2.6-2-3.7-1.5a1.47,1.47,0,0,0-.6,2.1,2.75,2.75,0,0,0,2.2,1.2,11.08,11.08,0,0,0,2.8-.4c.2.4.3.8.5,1.2s.2.5.3.8a2.35,2.35,0,0,1,.2.8c.1.5.3,1.1.4,1.6s.1.7.2,1a13,13,0,0,0-.6-1.2c-.6-.9-2.2-2.4-3.4-2.1a1.35,1.35,0,0,0-.9,1.9,3.24,3.24,0,0,0,2,1.6,9.75,9.75,0,0,0,3,0c.1.6.2,1.1.3,1.6.2,1.2.4,2.2.5,3.1h.8a24.89,24.89,0,0,0-.6-3.2,11.63,11.63,0,0,0-.4-1.8c.1-.1,1-.4,1.7-.8a9.76,9.76,0,0,0,2.4,1.6c-.2.5-.4,1.1-.6,1.5-.4,1-.9,1.9-1.2,2.7h.9c.3-.7.7-1.5,1-2.4.2-.5.5-1.1.7-1.7a11.93,11.93,0,0,0,3,.2,2.88,2.88,0,0,0,2.1-1.4,1.51,1.51,0,0,0-.8-2c-1.2-.4-2.9.9-3.6,1.8a6.42,6.42,0,0,1-.6,1c.1-.2.2-.5.3-.7a7.49,7.49,0,0,0,.5-1.6,2.35,2.35,0,0,0,.2-.8c.1-.3.1-.6.2-.8a14.16,14.16,0,0,0,.4-2,9.52,9.52,0,0,0,2.8.7,3.36,3.36,0,0,0,2.3-1.1,1.41,1.41,0,0,0-.5-2.1c-1.1-.6-3,.5-3.8,1.2a11,11,0,0,1-.8,1c.1-.4.1-.8.2-1.2.2-1.2.3-2.4.4-3.7,0-.4.1-.7.1-1.1a8.13,8.13,0,0,0,2.9.7,3.36,3.36,0,0,0,2.3-1.1,1.41,1.41,0,0,0-.5-2.1c-1.1-.6-3,.5-3.8,1.2a6.23,6.23,0,0,0-.9,1.2l.3-2.4a30.05,30.05,0,0,1,.7-3.2,10.1,10.1,0,0,0,2.9.7,3.36,3.36,0,0,0,2.3-1.1,1.41,1.41,0,0,0-.5-2.1c-1.1-.6-3,.5-3.8,1.2a12.49,12.49,0,0,0-.9,1.2v-.2a13.59,13.59,0,0,1,1.3-3l.9-1.5a9.83,9.83,0,0,0,2.8,1,3.33,3.33,0,0,0,2.4-.8,1.39,1.39,0,0,0-.3-2.1c-1-.7-3.1.1-3.9.8l-.8.8c.1-.2.3-.4.4-.6a17.34,17.34,0,0,1,1.5-2,5.5,5.5,0,0,0,.7-.9,11.12,11.12,0,0,0,2.9-.4,3.19,3.19,0,0,0,1.8-1.8,1.44,1.44,0,0,0-1.2-1.8c-1.2-.1-2.7,1.5-3.1,2.5,0,.1-.5,1.5-.5,1.5h0a7.05,7.05,0,0,0-.7.9,17.34,17.34,0,0,0-1.5,2c-.5.8-1.1,1.6-1.6,2.5a22.25,22.25,0,0,0-1.4,3.1h0v-1.4c-.1-1.1-1-3.1-2.2-3.3a1.44,1.44,0,0,0-1.7,1.4,3.1,3.1,0,0,0,1.2,2.3,9.23,9.23,0,0,0,2.7,1.2c-.3,1.1-.6,2.2-.8,3.3-.1.7-.2,1.3-.3,2v-.6c-.1-1.1-1-3.1-2.2-3.3a1.44,1.44,0,0,0-1.7,1.4,3.1,3.1,0,0,0,1.2,2.3,9,9,0,0,0,2.7,1.2c0,.3-.1.5-.1.8-.1,1.2-.3,2.4-.5,3.6-.1.4-.1.8-.2,1.2v-.5c-.1-1.1-1-3.1-2.2-3.3a1.44,1.44,0,0,0-1.7,1.4,3.1,3.1,0,0,0,1.2,2.3,11.86,11.86,0,0,0,2.6,1.2l-.3,1.2c-.1.3-.1.5-.2.8s-.2.5-.3.8l-.6,1.5c-.1.3-.3.7-.4,1a10.5,10.5,0,0,0,.2-1.3,4.91,4.91,0,0,0-.8-2.7v-.3a1.4,1.4,0,0,0-1.8-1.2c-1.2.3-1.9,2.4-2,3.5a6.25,6.25,0,0,0,.1,1.2c-.1-.3-.1-.5-.2-.8-.1-.5-.3-1-.4-1.6a2.35,2.35,0,0,1-.2-.8c-.1-.3-.2-.5-.3-.8a15.39,15.39,0,0,0-.8-1.9,8.15,8.15,0,0,0,2.7-1,3.16,3.16,0,0,0,1.3-2.2,1.5,1.5,0,0,0-1.6-1.5c-1.2.1-2.3,2.1-2.5,3.1,0,.1-.1.8-.1,1.3a11.73,11.73,0,0,0-.5-1.1c-.5-1.1-1.1-2.2-1.7-3.3-.2-.3-.3-.7-.5-1a9.54,9.54,0,0,0,2.8-1,3.16,3.16,0,0,0,1.3-2.2,1.5,1.5,0,0,0-1.6-1.5c-1.2.1-2.3,2.1-2.5,3.1,0,.1-.1,1.2-.1,1.5a22.56,22.56,0,0,1-1.1-2.2,16.59,16.59,0,0,1-1.2-3.1,10.63,10.63,0,0,0,2.8-1,3.16,3.16,0,0,0,1.3-2.2,1.5,1.5,0,0,0-1.6-1.5c-1.2.1-2.3,2.1-2.5,3.1,0,.1-.1,1.3-.1,1.5,0-.1,0-.1-.1-.2a19.85,19.85,0,0,1-.6-3.2,10.87,10.87,0,0,1-.1-1.8,10,10,0,0,0,2.9-.7,3.18,3.18,0,0,0,1.6-2,1.42,1.42,0,0,0-1.4-1.6c-1.2,0-2.5,1.8-2.8,2.8,0,.1-.1.6-.2,1.1v-.8c0-.9.1-1.8.1-2.5,0-.4.1-.8.1-1.2a6.65,6.65,0,0,0,2.2-2,3.2,3.2,0,0,0,.5-2.5,1.43,1.43,0,0,0-2-.8c-1.1.6-1.4,2.7-1.2,3.8,0,.1.4,1.5.4,1.5h0c0,.3-.1.7-.1,1.1a18.09,18.09,0,0,0-.2,2.5c0,.9,0,1.9.1,3a12.76,12.76,0,0,0,.6,3.3h0a12.25,12.25,0,0,1-.8-1.2c-.7-.8-2.6-2-3.7-1.5a1.47,1.47,0,0,0-.6,2.1A5.63,5.63,0,0,0,415.1,421.2Z" fill="#828282"/><path d="M436,415.4s.4-1.4.4-1.5c.1-1.1-.2-3.3-1.3-3.8a1.48,1.48,0,0,0-2,.9,3.2,3.2,0,0,0,.5,2.5A11.62,11.62,0,0,0,436,415.4Z" fill="#828282"/><path d="M73.4,413.5a9.36,9.36,0,0,0,3,.3s-.5-1.4-.5-1.5c-.5-1-2-2.6-3.2-2.4a1.44,1.44,0,0,0-1.2,1.8A4.14,4.14,0,0,0,73.4,413.5Z" fill="#828282"/><path d="M74.2,419.7a9.67,9.67,0,0,0,3-.5,20.82,20.82,0,0,0,1.2,3.2c.3.6.5,1.2.8,1.8-.2-.3-.3-.5-.4-.5-.7-.8-2.6-2-3.7-1.5a1.47,1.47,0,0,0-.6,2.1,2.75,2.75,0,0,0,2.2,1.2,11.25,11.25,0,0,0,2.9-.4c.1.2.2.5.3.7.6,1.1,1.1,2.2,1.6,3.3.2.4.3.8.5,1.2a1.73,1.73,0,0,1-.3-.4c-.7-.8-2.6-2-3.7-1.5a1.47,1.47,0,0,0-.6,2.1,2.75,2.75,0,0,0,2.2,1.2,11.08,11.08,0,0,0,2.8-.4c.2.4.3.8.5,1.2s.2.5.3.8a2.35,2.35,0,0,1,.2.8c.1.5.3,1.1.4,1.6s.1.7.2,1a13,13,0,0,0-.6-1.2c-.6-.9-2.2-2.4-3.4-2.1a1.35,1.35,0,0,0-.9,1.9,3.24,3.24,0,0,0,2,1.6,9.75,9.75,0,0,0,3,0c.1.6.2,1.1.3,1.6.2,1.2.4,2.2.5,3.1h.8a24.89,24.89,0,0,0-.6-3.2,11.63,11.63,0,0,0-.4-1.8c.1-.1,1-.4,1.7-.8a9.76,9.76,0,0,0,2.4,1.6c-.2.5-.4,1.1-.6,1.5-.4,1-.9,1.9-1.2,2.7h.9c.3-.7.7-1.5,1-2.4.2-.5.5-1.1.7-1.7a11.93,11.93,0,0,0,3,.2,2.88,2.88,0,0,0,2.1-1.4,1.51,1.51,0,0,0-.8-2c-1.2-.4-2.9.9-3.6,1.8a6.42,6.42,0,0,1-.6,1c.1-.2.2-.5.3-.7a7.49,7.49,0,0,0,.5-1.6,2.35,2.35,0,0,0,.2-.8c.1-.3.1-.6.2-.8a14.16,14.16,0,0,0,.4-2,9.52,9.52,0,0,0,2.8.7,3.36,3.36,0,0,0,2.3-1.1,1.41,1.41,0,0,0-.5-2.1c-1.1-.6-3,.5-3.8,1.2a11,11,0,0,1-.8,1c.1-.4.1-.8.2-1.2.2-1.2.3-2.4.4-3.7,0-.4.1-.7.1-1.1a8.13,8.13,0,0,0,2.9.7,3.36,3.36,0,0,0,2.3-1.1,1.41,1.41,0,0,0-.5-2.1c-1.1-.6-3,.5-3.8,1.2a6.23,6.23,0,0,0-.9,1.2l.3-2.4a30.05,30.05,0,0,1,.7-3.2,10.1,10.1,0,0,0,2.9.7,3.36,3.36,0,0,0,2.3-1.1,1.41,1.41,0,0,0-.5-2.1c-1.1-.6-3,.5-3.8,1.2a12.49,12.49,0,0,0-.9,1.2v-.2a13.59,13.59,0,0,1,1.3-3l.9-1.5a9.83,9.83,0,0,0,2.8,1,3.33,3.33,0,0,0,2.4-.8,1.39,1.39,0,0,0-.3-2.1c-1-.7-3.1.1-3.9.8l-.8.8c.1-.2.3-.4.4-.6a17.34,17.34,0,0,1,1.5-2,5.5,5.5,0,0,0,.7-.9,11.12,11.12,0,0,0,2.9-.4,3.19,3.19,0,0,0,1.8-1.8,1.44,1.44,0,0,0-1.2-1.8c-1.2-.1-2.7,1.5-3.1,2.5,0,.1-.5,1.5-.5,1.5h0a7.05,7.05,0,0,0-.7.9,17.34,17.34,0,0,0-1.5,2c-.5.8-1.1,1.6-1.6,2.5a22.25,22.25,0,0,0-1.4,3.1h0v-1.4c-.1-1.1-1-3.1-2.2-3.3a1.44,1.44,0,0,0-1.7,1.4,3.1,3.1,0,0,0,1.2,2.3,9.23,9.23,0,0,0,2.7,1.2c-.3,1.1-.6,2.2-.8,3.3-.1.7-.2,1.3-.3,2V424c-.1-1.1-1-3.1-2.2-3.3a1.44,1.44,0,0,0-1.7,1.4,3.1,3.1,0,0,0,1.2,2.3,9,9,0,0,0,2.7,1.2c0,.3-.1.5-.1.8-.1,1.2-.3,2.4-.5,3.6-.1.4-.1.8-.2,1.2v-.5c-.1-1.1-1-3.1-2.2-3.3a1.44,1.44,0,0,0-1.7,1.4,3.1,3.1,0,0,0,1.2,2.3,11.86,11.86,0,0,0,2.6,1.2l-.3,1.2c-.1.3-.1.5-.2.8s-.2.5-.3.8l-.6,1.5c-.1.3-.3.7-.4,1a10.5,10.5,0,0,0,.2-1.3,4.91,4.91,0,0,0-.8-2.7v-.3a1.4,1.4,0,0,0-1.8-1.2c-1.2.3-1.9,2.4-2,3.5a6.25,6.25,0,0,0,.1,1.2c-.1-.3-.1-.5-.2-.8-.1-.5-.3-1-.4-1.6a2.35,2.35,0,0,1-.2-.8c-.1-.3-.2-.5-.3-.8a15.39,15.39,0,0,0-.8-1.9,8.15,8.15,0,0,0,2.7-1,3.16,3.16,0,0,0,1.3-2.2,1.5,1.5,0,0,0-1.6-1.5c-1.2.1-2.3,2.1-2.5,3.1,0,.1-.1.8-.1,1.3a11.73,11.73,0,0,0-.5-1.1c-.5-1.1-1.1-2.2-1.7-3.3-.2-.3-.3-.7-.5-1a9.54,9.54,0,0,0,2.8-1,3.16,3.16,0,0,0,1.3-2.2,1.5,1.5,0,0,0-1.6-1.5c-1.2.1-2.3,2.1-2.5,3.1,0,.1-.1,1.2-.1,1.5a22.56,22.56,0,0,1-1.1-2.2,16.59,16.59,0,0,1-1.2-3.1,10.63,10.63,0,0,0,2.8-1,3.16,3.16,0,0,0,1.3-2.2,1.5,1.5,0,0,0-1.6-1.5c-1.2.1-2.3,2.1-2.5,3.1,0,.1-.1,1.3-.1,1.5,0-.1,0-.1-.1-.2a19.85,19.85,0,0,1-.6-3.2,10.87,10.87,0,0,1-.1-1.8,10,10,0,0,0,2.9-.7,3.18,3.18,0,0,0,1.6-2,1.42,1.42,0,0,0-1.4-1.6c-1.2,0-2.5,1.8-2.8,2.8,0,.1-.1.6-.2,1.1v-.8c0-.9.1-1.8.1-2.5,0-.4.1-.8.1-1.2a6.65,6.65,0,0,0,2.2-2,3.2,3.2,0,0,0,.5-2.5,1.43,1.43,0,0,0-2-.8c-1.1.6-1.4,2.7-1.2,3.8,0,.1.4,1.5.4,1.5h0c0,.3-.1.7-.1,1.1a18.09,18.09,0,0,0-.2,2.5c0,.9,0,1.9.1,3a12.76,12.76,0,0,0,.6,3.3h0a12.25,12.25,0,0,1-.8-1.2c-.7-.8-2.6-2-3.7-1.5a1.47,1.47,0,0,0-.6,2.1A5.63,5.63,0,0,0,74.2,419.7Z" fill="#828282"/><path d="M95.1,413.9s.4-1.4.4-1.5c.2-1.1-.2-3.3-1.3-3.8a1.48,1.48,0,0,0-2,.9,3.2,3.2,0,0,0,.5,2.5A11.62,11.62,0,0,0,95.1,413.9Z" fill="#828282"/></g><g id="Clouds"><path d="M111.7,132.1c-1.9-2-5.3-3.9-11.1-4-13.1-.3-9.6,8.9-13.1,11.2s-4.5-1.3-8,1-1.9,6.7-4.8,7.4-6.7-2.9-10.2-.6-3.5,4.2-5.1,4.2-4.8-1.3-6.7,0-4.2,2.9-4.2,2.9H82.8" fill="none" stroke="#263238" stroke-linecap="round" stroke-linejoin="round"/><path d="M115.3,137.8a9.29,9.29,0,0,0-1-.5,8.66,8.66,0,0,0-1.2-3.4" fill="none" stroke="#263238" stroke-linecap="round" stroke-linejoin="round"/><path d="M87.2,154h42.1s1-2.9-2.6-4.8-5.1-.3-6.4-1.9c-1.1-1.4,2.5-4.9-3.4-8.5" fill="none" stroke="#263238" stroke-linecap="round" stroke-linejoin="round"/><path d="M401.2,325.3c-1.9-2-5.3-3.9-11.1-4-13.1-.3-9.6,8.9-13.1,11.2s-4.5-1.3-8,1-1.9,6.7-4.8,7.4-6.7-2.9-10.2-.6-3.5,4.2-5.1,4.2-4.8-1.3-6.7,0-4.2,2.9-4.2,2.9h34.3" fill="none" stroke="#263238" stroke-linecap="round" stroke-linejoin="round"/><path d="M404.8,331a9.29,9.29,0,0,0-1-.5,8.66,8.66,0,0,0-1.2-3.4" fill="none" stroke="#263238" stroke-linecap="round" stroke-linejoin="round"/><path d="M376.7,347.2h42.1s1-2.9-2.6-4.8-5.1-.3-6.4-1.9c-1.1-1.4,2.5-4.9-3.4-8.5" fill="none" stroke="#263238" stroke-linecap="round" stroke-linejoin="round"/><path d="M178.5,73.8h44.9s1.5-4.6-4.1-7.6-8.2-.5-10.2-3.1,5.6-9.2-9.7-15.8c0,0-1-14.3-21.9-14.8-9-.2-13.1,2.4-15.3,5.8" fill="none" stroke="#263238" stroke-linecap="round" stroke-linejoin="round"/><line x1="164.8" y1="73.8" x2="172.3" y2="73.8" fill="none" stroke="#263238" stroke-linecap="round" stroke-linejoin="round"/><path d="M159.5,45.3c-.6,2.2-1.3,4-2.9,5-5.6,3.6-7.1-2-12.7,1.5s-3.1,10.7-7.6,11.7-10.7-4.6-16.3-1-5.6,6.6-8.2,6.6-7.6-2-10.7,0-6.6,4.6-6.6,4.6h57.3" fill="none" stroke="#263238" stroke-linecap="round" stroke-linejoin="round"/></g><g id="Floor"><line x1="468.1" y1="443.2" x2="478.9" y2="443.2" fill="none" stroke="#263238" stroke-linecap="round" stroke-linejoin="round"/><line x1="33.2" y1="443.2" x2="458.1" y2="443.2" fill="none" stroke="#263238" stroke-linecap="round" stroke-linejoin="round"/></g><g id="Character"><ellipse cx="247" cy="478.6" rx="25.7" ry="2.3" fill="#263238"/><path d="M151.8,287.8s-5.5,2.5-4.1,11.3,42.7,66.1,53.1,104.6,2.2,70.5,46,66.9,49.6-52.9,59.2-91.7,33.6-63.6,35-81.2-9.9-14.6-9.9-14.6" fill="none" stroke="#263238" stroke-miterlimit="10"/><path d="M211.4,339.6s3.9,25.9,4.1,27.3-3.9,16.3-1.2,24.6,6.9,21,8.6,24.8,2,4.1,2.2,10-1.4,17.9.8,21.8a10.34,10.34,0,0,0,10.8,5.3c4.3-.8,6.5-3.9,5.9-8.8s-2.6-11.4-3.7-16.9-2.4-10-3.1-13.4-.6-1.2-.8-13.9a247.75,247.75,0,0,0-1.6-25.1c-.6-6.3-.4-7.3-.6-9s7.1-26.3,7.1-26.3l-28.7-2.2Z" fill="#fff" stroke="#263238" stroke-miterlimit="10"/><path d="M238.9,427.7c-1.2-5.5-2.4-10-3.1-13.4s-.6-1.2-.8-13.9a247.75,247.75,0,0,0-1.6-25.1s-2.7,28.7-8.3,50.5v.6c.2,5.9-1.4,17.9.8,21.8a10.34,10.34,0,0,0,10.8,5.3c4.3-.8,6.5-3.9,5.9-8.8C242.1,439.6,240.1,433.2,238.9,427.7Z" fill="#263238" stroke="#263238" stroke-miterlimit="10"/><path d="M242.6,444.5c-.6-4.9-2.6-11.4-3.7-16.9s-2.4-10-3.1-13.4c0,0,1,3.7-3.5,6.5a6.76,6.76,0,0,1-7.5,0,46.66,46.66,0,0,1,.4,5.5c.2,5.9-1.4,17.9.8,21.8a10.34,10.34,0,0,0,10.8,5.3C241.1,452.6,243.2,449.5,242.6,444.5Z" fill="#fff" stroke="#263238" stroke-miterlimit="10"/><path d="M236.8,453.4c4.3-.8,6.5-3.9,5.9-8.8a5,5,0,0,0-.2-1.2c-1.1,5.5-4.2,8.8-9.4,7.9-4.2-.7-6.9-5.9-8.2-9.1a15.27,15.27,0,0,0,1.1,6A10.28,10.28,0,0,0,236.8,453.4Z" fill="#fff" stroke="#263238" stroke-miterlimit="10"/><path d="M254.2,371.7s.4,6.9,1.8,9.6,4.3,3.1,6.1,6.7,2.4,4.5.2,12c-1.1,4-3.4,10.6.2,14,5.5,5.2,10.1-2,12-6.7,1.8-4.4,1.9-8.9,1.3-13.6-.8-6.9-.8-7.5-.8-8.6s4.7-7.9,2.2-14.5-7.1-6.1-7.1-6.1S256.4,361.8,254.2,371.7Z" fill="#263238" stroke="#263238" stroke-miterlimit="10"/><path d="M248.7,341.8s1.4,25.5,4.1,30.6,11.8,7.7,15.1,5.5,5.9-13.4,6.9-19.8,2.2-15.3,2.2-15.3Z" fill="#fff" stroke="#263238" stroke-miterlimit="10"/><path d="M213,270.5s-5.9,24.6-6.3,34.4-2.4,25.9-3.1,30.1a34.89,34.89,0,0,0-.6,7.7s3.7-1.4,17.9.6,15.5,2.4,18.1,2.4h2.6l2.6-2.4-.4,2.4s-4.1,2,9.6.4,18.1-.6,22.4-.8,7.7-.6,7.7-.6,1.6-13-2-30.4-3.3-27.5-6.9-34l-3.5-6.5s-27.3,1.4-37.3,1.2a66,66,0,0,1-19.3-3.7" fill="#263238" stroke="#263238" stroke-miterlimit="10"/><path d="M164.7,269.3l-4.4,3.8s-6.6,2.4-7.8,4.4-2.2,6.2-3.2,6.6-3.6.6-2.6,1.8,3,.8,3,.8.8,4,1.4,4.8,2.8-.8,6.8-2.4,4.6-1,5.4-3.8,2.2-7.8,2.2-7.8l2.8-2.6Z" fill="#fff" stroke="#263238" stroke-miterlimit="10"/><path d="M164.7,269.3l-3.2,2.7,4,5.6v-.1l2.8-2.6Z" fill="#92e3a9" stroke="#263238" stroke-miterlimit="10"/><path d="M149.7,286.8l9-4.5a1.17,1.17,0,0,1,1.6.5,12.78,12.78,0,0,1,1.6,3.8" fill="none" stroke="#263238" stroke-miterlimit="10"/><path d="M160.3,281.9l1.5-.7a1.8,1.8,0,0,1,2.5,1l.1.3a1.83,1.83,0,0,1-1.2,2.4l-1.1.3Z" fill="#263238" stroke="#263238" stroke-miterlimit="10"/><path d="M158.7,282.3s1.2-.6,1.2-2.9" fill="none" stroke="#263238" stroke-miterlimit="10"/><path d="M318.8,267.7l5,3s6.9,1.3,8.5,3.1,3.2,5.8,4.3,6,3.7,0,2.9,1.3a3.27,3.27,0,0,1-2.8,1.3s-.1,4.1-.6,5-2.9-.3-7.1-1.2-4.7-.2-6-2.9-3.5-7.4-3.5-7.4l-3.2-2.1Z" fill="#fff" stroke="#263238" stroke-miterlimit="10"/><path d="M318.8,267.7l3.6,2.2-3,6.2V276l-3.2-2.1Z" fill="#92e3a9" stroke="#263238" stroke-miterlimit="10"/><path d="M336.6,282.4l-9.7-3a1.19,1.19,0,0,0-1.5.7,17.58,17.58,0,0,0-1,4.1" fill="none" stroke="#263238" stroke-miterlimit="10"/><path d="M325.3,279.3l-1.6-.5a1.8,1.8,0,0,0-2.3,1.4l-.1.4a1.76,1.76,0,0,0,1.5,2.1l1.1.1Z" fill="#263238" stroke="#263238" stroke-miterlimit="10"/><path d="M326.9,279.4s-1.2-.4-1.6-2.7" fill="none" stroke="#263238" stroke-miterlimit="10"/><path d="M223,192.7s-19.6,5.4-20.4,9.8-6.2,18.9-6.2,19.9-6.6,23.9-6.6,23.9-2.6,2-2.8,2.8c0,0-9.9,5.6-13.7,9.9s-10.3,7.6-9.9,9,2.4,9.6,8.8,9.4,26.3-10.1,30.4-14.1,9.9-16.5,9.9-16.5-4,13.1-3,16.1,2,8.4,5.2,9.9,13.5,5,32,4.6,23.5-1,26.1-4.8a28.16,28.16,0,0,0,4.6-12.9,57,57,0,0,0,.6-8.4c0-1.8,4.4,8,15.3,14.7s17.5,13.1,19.5,10.9,9-5.4,7.8-11.3-5.6-6.8-11.1-12.3a39,39,0,0,1-7.8-11.1s.6-2.8-.6-4.2l-1.2-1.4a17.18,17.18,0,0,0-1.2-16.1,133.13,133.13,0,0,0-11.5-15.9c-4.4-5.4-3.4-6.8-7.8-9.4s-2.6-2.4-12.7-4.4-12.7-.4-25.9-.5S223,192.7,223,192.7Z" fill="#92e3a9" stroke="#263238" stroke-miterlimit="10"/><path d="M277.9,251.4s1.8-12.1,3-22.1-1.6-18.1-3.4-21.1" fill="none" stroke="#263238" stroke-miterlimit="10"/><path d="M212,212.6s-2.2,7.2-.4,13.3,1.8,9,1.6,12.3-.8,8.8-.8,8.8" fill="none" stroke="#263238" stroke-miterlimit="10"/><path d="M214.4,258.3c.6-.4,12.1-16.1,12.1-16.1l2,1.4-12.7,16.7" fill="none" stroke="#263238" stroke-miterlimit="10"/><polyline points="259 244.8 270.3 264.3 272.5 262.7 261.4 244" fill="none" stroke="#263238" stroke-miterlimit="10"/><path d="M229.1,276.1s-.8-1.4-7.2-7.8" fill="none" stroke="#263238" stroke-miterlimit="10"/><path d="M246.6,277.6s7.2-3.2,8.8-7" fill="none" stroke="#263238" stroke-miterlimit="10"/><path d="M253.2,276.7a5.8,5.8,0,0,0,4-2.6" fill="none" stroke="#263238" stroke-miterlimit="10"/><path d="M231.4,174s-6.8,1.6-7.2,3.4a25.64,25.64,0,0,0-.4,3.7c-.1.5-3.4,2.4-4.5,4.4s.7,2.3.7,2.9-2.4,2.3-1.8,3.3a5,5,0,0,0,4.8,2.7c3.3.1,17.4-.7,18-.5s9.8-2,16.6-1.8,12.9,2.4,13.3.7-3-6.3-3-6.3,2.4-.5.7-3.7-3.8-3.5-3.8-4.2,2.2-1.6-3-3.4A47.76,47.76,0,0,0,249,173c-2.7-.1-14.6-.4-14.6-.4Z" fill="#92e3a9" stroke="#263238" stroke-miterlimit="10"/><path d="M264.8,178.5a59.88,59.88,0,0,0-10.8,6.7c-4.2,3.4-5.9,6.1-9.1,6.8" fill="none" stroke="#263238" stroke-miterlimit="10"/><path d="M267.9,186.4s-2.9-.9-8.8,1.4-4.8,3-9.5,3.6" fill="none" stroke="#263238" stroke-miterlimit="10"/><path d="M223.8,181.1s2.2,1,7.1,6.3,7.8,4.6,7.8,4.6" fill="none" stroke="#263238" stroke-miterlimit="10"/><path d="M220,188.3c1.1.3,3,3.5,9.4,4.3" fill="none" stroke="#263238" stroke-miterlimit="10"/><path d="M232.9,174.2a15.41,15.41,0,0,0,1.5,8.7c2.2,3.9,4.4,7.9,6.4,7.5s9.4-8.2,10.9-10.2a22.88,22.88,0,0,0,2.6-6.1S241.8,180.2,232.9,174.2Z" fill="#fff" stroke="#263238" stroke-miterlimit="10"/><path d="M254.3,174.1s-12.5,6.1-21.4.1a15.78,15.78,0,0,0-.1,3,29.62,29.62,0,0,0,11.6,10.6,73.43,73.43,0,0,0,7.2-7.6C253.2,178.2,254.3,174.1,254.3,174.1Z" fill="#263238" stroke="#263238" stroke-miterlimit="10"/><path d="M229,158.2s-3-2.7-3.8-.3a6.44,6.44,0,0,0,1.4,6.8c1.9,2.1,3.1,2.4,3.1,2.4Z" fill="#fff" stroke="#263238" stroke-miterlimit="10"/><path d="M258.1,161.2s3.4-2.2,3.8.3a6.67,6.67,0,0,1-2.4,6.5c-2.2,1.8-3.4,1.9-3.4,1.9Z" fill="#fff" stroke="#263238" stroke-miterlimit="10"/><path d="M241.9,133.7s-8.8-2-10.6,5-3.4,18-3.3,23,2.7,12.4,4.1,13.9,5.3,5.4,8.2,5.6,9.7-1.6,12.8-4.8,2.6-6.1,4.2-11.2,4.1-12.2,2.6-19.5-.4-5.4-6.1-9.9S240.3,128.5,241.9,133.7Z" fill="#fff" stroke="#263238" stroke-miterlimit="10"/><path d="M259.9,145.8c-1.5-7.2-.4-5.4-6.1-9.9s-13.5-7.3-11.8-2.2c0,0-8.8-2-10.6,5a134.88,134.88,0,0,0-2.7,15.3l.3-.1s1.8-.3,2-3.8.4-8.4,1.9-8.6,4.2,3.7,8.7,2.2,6.9-4.1,10.8-2.4,5.2,4.8,4.2,6.1-1.8,3.4-.8,5a13,13,0,0,1,2,4.2c.2.9.3,4.4.4,6.1C259.6,158,261.1,151.9,259.9,145.8Z" fill="#263238" stroke="#263238" stroke-miterlimit="10"/><polyline points="240 154.9 240.7 157.1 239.7 159.5" fill="none" stroke="#263238" stroke-miterlimit="10"/><path d="M239.6,163.5c0,.4,2.2,2.4,5.4.8" fill="none" stroke="#263238" stroke-miterlimit="10"/><circle cx="241.9" cy="170.3" r="1.2" fill="#263238"/><path d="M236.7,157.5c0,.6-.4,1.1-.8,1.1s-.8-.5-.8-1.1.4-1.1.8-1.1S236.7,156.9,236.7,157.5Z" fill="#263238"/><path d="M249.9,157.9c0,.6-.4,1.1-.8,1.1s-.8-.5-.8-1.1.4-1.1.8-1.1S249.9,157.3,249.9,157.9Z" fill="#263238"/><path d="M232.9,153.3a7.27,7.27,0,0,1,6,.8" fill="none" stroke="#263238" stroke-miterlimit="10"/><path d="M246.7,154.9a8.76,8.76,0,0,1,7.6.1" fill="#fff" stroke="#263238" stroke-miterlimit="10"/></g></svg>