<svg id="_2b8e3008-3352-469a-8231-8c916447ef06" data-name="2b8e3008-3352-469a-8231-8c916447ef06" xmlns="http://www.w3.org/2000/svg" xmlns:xlink="http://www.w3.org/1999/xlink" viewBox="0 0 1037.94 772.29"><defs><linearGradient id="linear-gradient" x1="521.94" y1="25.59" x2="521.94" y2="749.59" gradientTransform="matrix(1, 0, 0, -1, 0, 772)" gradientUnits="userSpaceOnUse"><stop offset="0" stop-color="gray" stop-opacity="0.25"/><stop offset="0.54" stop-color="gray" stop-opacity="0.12"/><stop offset="1" stop-color="gray" stop-opacity="0.1"/></linearGradient><linearGradient id="linear-gradient-2" x1="748.48" y1="175.75" x2="748.48" y2="592.74" gradientTransform="matrix(1, 0, 0, -1, -81.08, 708.14)" xlink:href="#linear-gradient"/></defs><circle cx="521.94" cy="384.41" r="362" fill="url(#linear-gradient)"/><circle cx="521.94" cy="384.41" r="356" fill="#6c63ff"/><circle cx="521.94" cy="384.41" r="283" fill="#dde1ec"/><rect x="513.94" y="151.41" width="16" height="250" fill="#535461" opacity="0.3" style="isolation:isolate"/><g opacity="0.1"><rect x="538.94" y="378.41" width="226" height="20"/><rect x="435.84" y="269.42" width="20" height="160.52" transform="translate(-70.76 582.42) rotate(-62.36)"/><circle cx="521.94" cy="388.41" r="30"/></g><rect x="538.94" y="374.41" width="226" height="20" fill="#535461"/><rect x="435.91" y="265.44" width="20" height="160.52" transform="translate(-67.2 580.35) rotate(-62.36)" fill="#535461"/><circle cx="521.94" cy="384.41" r="30" fill="#535461"/><g opacity="0.1"><path d="M260.92,418.41c0-156.3,126.7-283,283-283A282.56,282.56,0,0,1,770.08,248.25c-48.16-87.52-141.16-146.84-248.16-146.84-156.3,0-283,126.7-283,283a281.78,281.78,0,0,0,56.87,170.16A281.7,281.7,0,0,1,260.92,418.41Z"/></g><path d="M783.42,176.23c-3.36-3.23-31.64,18-31.64,18s-10.07,1.84-7.67,8.75-10.55,45.61-10.55,45.61l-5.27-7.37c.51-8.65-1.87-14.78-4.19-18.6-.19-.31-.38-.61-.57-.89l.92-.32c-.35-4.72-7.9-11.91-11.91-15.43v-1.52c.25-5.64,2.51-11.59,0-16.7-2.84-5.83-11.15-8.76-11.85-15.16-.42-3.82,2.16-7.27,3.3-10.95,2.72-8.8-2.93-17.78-8.33-25.36a35.36,35.36,0,0,0-6.61-7.62,31.93,31.93,0,0,0-7.94-4.24c-7.91-3.2-16-4.81-24.16-7-7.83-2.08-15.05-3.07-23-.46a11.32,11.32,0,0,0-5,2.87c-1.89,2.12-2.14,5.14-3.38,7.67-2,4.07-6.31,6.5-10.12,9.11s-7.63,6.19-7.65,10.69c0,6.39,7.3,10.41,9.74,16.36,2.28,5.54,0,11.71-1.27,17.55a11.83,11.83,0,0,0-.15,5.79,12.24,12.24,0,0,0,2.24,3.9c1.51,2,3.13,3.86,4.74,5.76l-.74.29c-13.42-1.38-22.05,15.66-22.05,15.66.62.13,1.21.28,1.79.45l-.57.74A72.55,72.55,0,0,0,591.68,231l-11,14.74s-2.4-36.86,3.36-45.15-5.27-13.36-5.27-13.36-24-26.72-27.33-24.42,8.15,31.33,18.22,35.94c0,0,1,9.21-1,15.2-1.21,3.79-7.67,43.77-7.67,43.77s-5.75,33.63,20.62,17c17.13-10.78,28.2-29.34,33.84-41l1.11-2.35a28,28,0,0,1,.53,3.75l1,38.53A58.55,58.55,0,0,1,612,301.21L600.28,325l1.31.4-.79,1.14c-7.74,11.39-20.9,37,6.19,50.05l36,4.61-1.92,9.21s-14.86,28.1-19.18,47.45A141.81,141.81,0,0,1,609.42,472l1.11.59c-.23.26-.47.53-.7.81a17.39,17.39,0,0,0-4.16,8.72L600.79,489s-1.92,28.56,1.92,35.48c2.1,3.78,9.07,6.18,15,7.58,8.8,2.09,15.9-7,11.23-14.49l-.06-.1h-.09c-1-4.65-4.06-19.08-3.06-24.56.28-1.56.54-3.11.67-4.69a16.5,16.5,0,0,1,1.86-5.93c.16-.31.33-.61.5-.91l.52.22c1.61.69,3.2,1.34,4.71,1.91-2.34,2.13-4,6.54-2,15.61,0,0,.19,22.69,1.92,26.26S655,533.7,658.36,530s-2.16-16.36-2.16-16.36l-.17.12c-1.11-7.35-2.48-20.51.89-25.69,1.36-2.09,2.68-4.25,3.86-6.27l.73-1.25h0c6.26,3.12,12.88,5.47,16.5,3.84,0,0,15.82-36.86,14.86-41.46s24.45-56.67,24.45-56.67,21.57-24-4.79-40.54c-8.37-5.27-14.47-8.81-18.9-11.2l-3.71-19.4a70.82,70.82,0,0,1,1-30.66l4-15.26h0l.33-1.3s10.07-20.73,9.59-30.41a7,7,0,0,1,.25-2.23q.17.69.36,1.44a186.31,186.31,0,0,0,10.42,29.36c7.65,17.26,19,15.89,25.22,13.44a8.62,8.62,0,0,0,5.31-6.22c2.24-10.74,8.39-40.83,8.78-49.14a139.94,139.94,0,0,1,2.4-19.35C773.36,195.58,786.78,179.46,783.42,176.23Z" fill="url(#linear-gradient-2)"/><path d="M666,471.45s-2.11,4.23-5,9.31c-1.13,2-2.39,4.15-3.68,6.22-4.57,7.31,0,30.6,0,30.6l-10,1.37-10-5-1.83-16.9V484.69l11.4-12.75,5-5.52Z" fill="#f8bdc5"/><g opacity="0.1"><path d="M666,471.45s-2.11,4.23-5,9.31a124.07,124.07,0,0,1-12.78-7.86l-.88-.62-.47-.34,5-5.52Z"/></g><path d="M714.92,386s-24.21,51.61-23.29,56.18-14.16,41.11-14.16,41.11c-3.44,1.62-9.76-.71-15.72-3.8a124.52,124.52,0,0,1-13-8l-.88-.62-.53-.38,39.74-110.08-35.16-25.79-2.6-1.91-15.72-11.6,48,8.68s1.67-.21,10.5,4.73c4.24,2.37,10.13,5.92,18.27,11.26C735.46,362.28,714.92,386,714.92,386Z" fill="#5e52ad"/><g opacity="0.03"><path d="M714.92,386s-24.21,51.61-23.29,56.18-14.16,41.11-14.16,41.11c-3.44,1.62-9.76-.71-15.72-3.8a124.52,124.52,0,0,1-13-8l-.88-.62-.53-.38,39.74-110.08-35.16-25.79-2.6-1.91-15.72-11.6,48,8.68s1.67-.21,10.5,4.73c4.24,2.37,10.13,5.92,18.27,11.26C735.46,362.28,714.92,386,714.92,386Z"/></g><path d="M641.37,480.58s-11.88-1.83-7.76,17.36c0,0,.18,22.5,1.83,26s20.1,8.22,23.29,4.57-2.06-16.21-2.06-16.21-13.47,9.82-17.13-.69S641.37,480.58,641.37,480.58Z" fill="#5d3e53"/><path d="M633.14,476.93a14.3,14.3,0,0,0-3.11,4.32,17.11,17.11,0,0,0-1.77,5.88c-.12,1.56-.37,3.11-.63,4.65-1.14,6.51,3.23,25.8,3.23,25.8l-17.36,2.74-6.39-6.85-1.37-15.07a54.44,54.44,0,0,0,2.74-16c0-3.93,2-7.44,4-10a27.54,27.54,0,0,1,4.63-4.59S636.8,473.73,633.14,476.93Z" fill="#f8bdc5"/><g opacity="0.1"><path d="M633.14,476.93a14.3,14.3,0,0,0-3.11,4.32c-7.11-3.21-14.58-7.26-17.3-8.76l-.21-.11a27.54,27.54,0,0,1,4.63-4.59S636.8,473.73,633.14,476.93Z"/></g><path d="M689.33,372.33s-11.41,21.47-18.73,39.28c-4.8,11.7-14.72,39.56-21,57.3l-.92,2.62c-2.76,7.85-4.6,13.16-4.6,13.16a11.78,11.78,0,0,1-3.59-.53c-1.08-.29-2.29-.68-3.58-1.16l-1.45-.55c-1.44-.56-3-1.21-4.49-1.89-7.26-3.24-15-7.46-17.81-9L612.1,471A144.48,144.48,0,0,0,624,437.14c4.11-19.18,18.27-47,18.27-47l1.83-9.14-34.26-4.57c-25.81-12.9-13.27-38.33-5.9-49.62a68.85,68.85,0,0,1,4.07-5.67l27.41,6s4.32,1.38,13.92,5.63l4.41,2c5.38,2.47,12,5.65,20,9.73C700.74,358.14,689.33,372.33,689.33,372.33Z" fill="#5e52ad"/><path d="M630.69,516.21A9.7,9.7,0,0,1,620,530.57c-5.61-1.39-12.26-3.77-14.26-7.52-3.65-6.85-1.83-35.17-1.83-35.17l4.8-7.08s-2.51,31.29,3.43,34,18.5,1.27,18.5,1.27Z" fill="#5d3e53"/><path d="M635.55,119a10.72,10.72,0,0,0-4.8,2.85c-1.8,2.1-2,5.1-3.22,7.61-1.9,4-6,6.45-9.64,9s-7.27,6.14-7.29,10.6c0,6.34,7,10.32,9.28,16.21,2.17,5.5,0,11.61-1.21,17.4a12.24,12.24,0,0,0-.14,5.74,12.44,12.44,0,0,0,2.14,3.87c4.41,6,9.89,11.32,12.84,18.15,2.24,5.19,2.86,10.92,3.45,16.55.85,8.1,1.7,16.35.16,24.35a2.46,2.46,0,0,0,0,1.47,2.29,2.29,0,0,0,1.17,1,24,24,0,0,0,32.08-11.1c.14-.3.28-.6.41-.9,2-4.53,2.77-10,6.73-12.94a3.43,3.43,0,0,1,1.61-.73,4.76,4.76,0,0,1,2.6.87c5.14,2.78,11.37,2.86,17.1,1.72,3.46-.69,7-1.92,9.29-4.62,4.51-5.36,2-13.37,2.3-20.36.24-5.59,2.39-11.49,0-16.55-2.7-5.78-10.63-8.68-11.29-15-.4-3.78,2.06-7.21,3.15-10.85,2.59-8.73-2.79-17.63-7.93-25.14a35,35,0,0,0-6.29-7.55,30.11,30.11,0,0,0-7.56-4.2c-7.53-3.17-15.21-4.77-23-6.93C650,117.39,643.16,116.4,635.55,119Z" fill="#85555c"/><path d="M673.8,249.46H647.3V206.52a79.42,79.42,0,0,0,1.38-12.5v-4.3c-.25-5.12-1.31-10.23-4.09-13.35-7.31-8.22,23.75-6.85,23.75-6.85a77.19,77.19,0,0,0,3.7,11.06,67.08,67.08,0,0,0,8.9,15.67A36.3,36.3,0,0,0,693,206.52C711.25,215.66,673.8,249.46,673.8,249.46Z" fill="#f8bdc5"/><g opacity="0.1"><path d="M672,180.58a24.25,24.25,0,0,1-23.36,9.14c-.25-5.12-1.31-10.23-4.09-13.35-7.31-8.22,23.75-6.85,23.75-6.85A77.19,77.19,0,0,0,672,180.58Z"/></g><circle cx="652.78" cy="164.51" r="24.21" fill="#f8bdc5"/><path d="M753.27,206.07A143.8,143.8,0,0,0,751,225.25c-.37,8.23-6.23,38.07-8.37,48.72a8.47,8.47,0,0,1-5.06,6.17c-5.94,2.43-16.74,3.79-24-13.32a190.12,190.12,0,0,1-9.93-29.1,78.6,78.6,0,0,1-2-10.18l16-8.68a19.75,19.75,0,0,1,3.78,4.85c2.21,3.79,4.48,9.87,4,18.44l5,7.31s12.33-38.37,10-45.22,7.31-8.68,7.31-8.68,26.95-21,30.15-17.81S768.34,196.93,753.27,206.07Z" fill="#f8bdc5"/><path d="M622.18,224.34a107.56,107.56,0,0,1-4.3,10.5c-5.38,11.57-15.92,30-32.24,40.66C560.52,291.94,566,258.6,566,258.6s6.15-39.64,7.31-43.39c1.83-5.94.91-15.07.91-15.07-9.59-4.57-20.55-33.34-17.36-35.63s26,24.21,26,24.21,10.51,5,5,13.25-3.2,44.76-3.2,44.76l10.57-14.59a72.88,72.88,0,0,1,9.39-17.08c2-2.73,3.4-4.38,3.4-4.38Z" fill="#f8bdc5"/><g opacity="0.1"><path d="M721.42,223.71c-3.36,1.24-16.37,6.49-17.81,14a78.6,78.6,0,0,1-2-10.18l16-8.68A19.73,19.73,0,0,1,721.42,223.71Z"/></g><g opacity="0.1"><path d="M622.18,224.34a107.56,107.56,0,0,1-4.3,10.5c-.62-4.52-3.17-16.08-13.26-19.81,2-2.73,3.4-4.38,3.4-4.38Z"/></g><g opacity="0.1"><path d="M673.8,249.46H647.3V206.52a79.42,79.42,0,0,0,1.38-12.5c5.45,5.26,4.1,13.41,4.1,13.41l14.16,32,6.86-28.29-2.28-3.65,9.4-11.18A36.3,36.3,0,0,0,693,206.58C711.25,215.66,673.8,249.46,673.8,249.46Z"/></g><g opacity="0.1"><path d="M692.52,337.14s-20.76-1.65-38.77-2.43l-1.81-.08c-2.56-.1-5-.18-7.39-.24-17.48-.42-37.25-6.53-40.61-7.6a66.37,66.37,0,0,1,4.08-5.65l27.41,6s4.32,1.38,13.92,5.63L633.6,321.14l48,8.68s1.67-.21,10.5,4.73Z"/></g><path d="M673.8,212.92l-2.28-3.65,10.14-12.13s20.91,10.25,26.39,8c0,0,13.25,11,13.7,17.36,0,0-19.18,6.39-18.73,16s-9.1,30.14-9.1,30.14l-4,16.42a73.15,73.15,0,0,0-1,30.4l3.65,20.33s-28.78-2.28-48-2.74-41.11-7.76-41.11-7.76l11.21-23.59a60.06,60.06,0,0,0,5.78-27.28l-1-38.19s-.91-19.18-16-22.38c0,0,8.22-16.9,21-15.53,0,0,18.62-7.77,24.15-2.52s4.17,13.48,4.17,13.48l14.16,32Z" fill="#ed677b"/><g opacity="0.1"><path d="M635.31,159.52c3.67,0,6.55-3.89,10.22-3.69,1.9.1,3.53,1.31,5.1,2.4a62.22,62.22,0,0,0,19.51,9c2.71.72,5.58,1.26,8.3.6s5.27-2.8,5.58-5.59a9.52,9.52,0,0,0-.48-3.63A44.89,44.89,0,0,0,664,132.82c-3.8-2.33-8.44-4.11-12.65-2.65-3.8,1.31-6.25,4.87-9,7.8a34.49,34.49,0,0,1-7,5.68c-2,1.21-5,2-6.15,4.22C627,152,630.44,159.48,635.31,159.52Z"/></g><path d="M635.31,158.61c3.67,0,6.55-3.89,10.22-3.69,1.9.1,3.53,1.31,5.1,2.4a62.22,62.22,0,0,0,19.51,9c2.71.72,5.58,1.26,8.3.6s5.27-2.8,5.58-5.59a9.52,9.52,0,0,0-.48-3.63A44.89,44.89,0,0,0,664,131.91c-3.8-2.33-8.44-4.11-12.65-2.65-3.8,1.31-6.25,4.87-9,7.8a34.49,34.49,0,0,1-7,5.68c-2,1.21-5,2-6.15,4.22C627,151.14,630.44,158.56,635.31,158.61Z" fill="#85555c"/><path d="M624.24,262.93s22.38,8.22,37,1.83l7.31.46s12.15,8.52,25,4.71" opacity="0.05" style="isolation:isolate"/><path d="M730.21,249.23s-3.65,8.68-1.83,11.42" opacity="0.05" style="isolation:isolate"/><path d="M584.5,246.49s1.83,8.68,0,11.42" opacity="0.05" style="isolation:isolate"/></svg>